<svg xmlns="http://www.w3.org/2000/svg" fill="none" viewBox="0 0 480 980">
  <rect width="480" height="980" fill="#C9E8CA" rx="95" />
  <rect width="450" height="950" x="15" y="15" fill="#333" rx="80" />
  <rect width="410" height="910" x="35" y="35" fill="#F5FBF5" rx="60" />
  <path
    fill="#333"
    d="M111.475 42.525a3.5 3.5 0 0 0-4.95 0L84.251 64.8a3.5 3.5 0 1 0 4.95 4.95L109 49.949l19.799 19.8a3.5 3.5 0 0 0 4.95-4.95l-22.274-22.274Zm-4.95 894.95a3.5 3.5 0 0 0 4.95 0l22.274-22.274a3.5 3.5 0 1 0-4.95-4.95L109 930.05l-19.799-19.799a3.5 3.5 0 1 0-4.95 4.95l22.274 22.274ZM105.5 45v890h7V45h-7Z"
  />
  <path
    stroke="#333"
    stroke-linecap="round"
    stroke-width="8"
    d="M175 921h130"
  />
  <path
    stroke="#333"
    stroke-dasharray="8 16"
    stroke-linecap="round"
    stroke-width="7"
    d="M26.5 893.5h425M25.5 108.5h429"
  />
  <path
    fill="#333"
    d="M294.774 463.024a113.69 113.69 0 0 0-5.472-1.725c.309-1.262.593-2.508.845-3.733 4.143-20.108 1.434-36.308-7.815-41.641-8.868-5.114-23.372.218-38.02 12.966a112.9 112.9 0 0 0-4.233 3.884c-.941-.9-1.88-1.77-2.817-2.602-15.352-13.631-30.74-19.375-39.979-14.026-8.86 5.129-11.484 20.358-7.755 39.415.36 1.841.781 3.721 1.257 5.632a112.177 112.177 0 0 0-6.292 1.978C166.494 469.447 155 479.282 155 489.483c0 10.535 12.339 21.103 31.086 27.51 1.479.506 3.014.984 4.596 1.438-.513 2.067-.96 4.092-1.335 6.068-3.555 18.726-.779 33.596 8.058 38.692 9.127 5.264 24.445-.146 39.361-13.185a95.476 95.476 0 0 0 3.547-3.269 113.36 113.36 0 0 0 4.596 4.193c14.448 12.433 28.718 17.453 37.546 12.342 9.118-5.278 12.082-21.252 8.234-40.686-.293-1.484-.635-3-1.019-4.544 1.075-.318 2.131-.646 3.161-.987C312.32 510.598 325 500.159 325 489.483c0-10.238-11.865-20.139-30.226-26.459Zm-4.227 47.137c-.929.308-1.883.606-2.855.894-2.152-6.811-5.055-14.054-8.609-21.537 3.391-7.305 6.183-14.455 8.274-21.222 1.739.504 3.427 1.034 5.053 1.594 15.732 5.416 25.328 13.423 25.328 19.593 0 6.571-10.364 15.103-27.191 20.678Zm-6.982 13.836c1.701 8.593 1.944 16.363.817 22.436-1.012 5.458-3.048 9.097-5.566 10.554-5.357 3.101-16.814-.93-29.17-11.562a103.954 103.954 0 0 1-4.275-3.898c4.79-5.239 9.578-11.329 14.25-18.093 8.218-.73 15.983-1.922 23.024-3.55.347 1.399.655 2.771.92 4.113Zm-70.608 32.454c-5.234 1.849-9.403 1.902-11.923.449-5.363-3.093-7.592-15.032-4.551-31.047a104.51 104.51 0 0 1 1.24-5.643c6.964 1.54 14.672 2.648 22.91 3.316 4.704 6.618 9.629 12.702 14.593 18.029a88.938 88.938 0 0 1-3.239 2.983c-6.596 5.765-13.205 9.856-19.03 11.913Zm-24.522-46.33c-8.29-2.833-15.135-6.515-19.828-10.534-4.216-3.611-6.345-7.195-6.345-10.104 0-6.191 9.229-14.086 24.621-19.453a104.661 104.661 0 0 1 5.852-1.841c2.127 6.92 4.918 14.154 8.285 21.47-3.411 7.425-6.241 14.775-8.389 21.776a88.848 88.848 0 0 1-4.196-1.314Zm8.22-55.953c-3.195-16.328-1.073-28.645 4.266-31.736 5.687-3.292 18.264 1.402 31.519 13.172.847.752 1.697 1.54 2.55 2.354-4.939 5.304-9.819 11.342-14.482 17.921-7.995.742-15.648 1.932-22.685 3.526-.442-1.78-.834-3.528-1.168-5.237Zm73.33 18.107a229.41 229.41 0 0 0-5.17-8.502c5.424.686 10.621 1.596 15.502 2.71-1.466 4.696-3.292 9.605-5.441 14.638a252.904 252.904 0 0 0-4.891-8.846Zm-29.904-29.127c3.35 3.629 6.704 7.681 10.004 12.077a213.926 213.926 0 0 0-20.093-.004c3.303-4.356 6.687-8.402 10.089-12.073Zm-30.095 29.177a214.358 214.358 0 0 0-4.799 8.791c-2.115-5.016-3.924-9.948-5.402-14.71 4.85-1.085 10.022-1.973 15.412-2.646a212.761 212.761 0 0 0-5.211 8.565Zm5.366 43.398c-5.568-.621-10.818-1.463-15.667-2.518 1.501-4.848 3.35-9.885 5.51-15.009a215.018 215.018 0 0 0 4.819 8.797 215.67 215.67 0 0 0 5.338 8.73Zm24.93 20.606c-3.442-3.714-6.875-7.822-10.228-12.241 3.255.128 6.573.193 9.946.193 3.465 0 6.89-.078 10.262-.228-3.31 4.499-6.653 8.613-9.98 12.276Zm34.663-38.394c2.272 5.179 4.188 10.19 5.708 14.955-4.929 1.124-10.25 2.03-15.858 2.703a254.42 254.42 0 0 0 5.219-8.65 230.712 230.712 0 0 0 4.931-9.008Zm-11.222 5.379a237.581 237.581 0 0 1-8.155 13.159 219.16 219.16 0 0 1-15.568.546c-5.29 0-10.436-.164-15.392-.486a206.275 206.275 0 0 1-8.309-13.179 204.417 204.417 0 0 1-7.253-13.697 206.05 206.05 0 0 1 7.232-13.705l-.001.001a204.22 204.22 0 0 1 8.243-13.123 205.882 205.882 0 0 1 30.988.005 218.178 218.178 0 0 1 8.191 13.079 237.418 237.418 0 0 1 7.329 13.64 218.677 218.677 0 0 1-7.305 13.76Zm14.982-81.098c5.692 3.283 7.906 16.523 4.33 33.885a97.494 97.494 0 0 1-.765 3.379c-7.052-1.627-14.711-2.838-22.73-3.59-4.671-6.652-9.512-12.7-14.37-17.935a106.448 106.448 0 0 1 3.909-3.586c12.551-10.922 24.281-15.235 29.626-12.153ZM240 474.302c8.384 0 15.18 6.797 15.18 15.181 0 8.383-6.796 15.18-15.18 15.18s-15.18-6.797-15.18-15.18c0-8.384 6.796-15.181 15.18-15.181ZM240 85c8.284 0 15-6.716 15-15 0-8.284-6.716-15-15-15-8.284 0-15 6.716-15 15 0 8.284 6.716 15 15 15Z"
  />
</svg>
